<svg width="93" height="31" viewBox="0 0 93 31" fill="none" xmlns="http://www.w3.org/2000/svg">
<g filter="url(#filter0_d_2_236)">
<mask id="path-1-outside-1_2_236" maskUnits="userSpaceOnUse" x="3" y="-1" width="88" height="25" fill="black">
<rect fill="white" x="3" y="-1" width="88" height="25"/>
<path d="M25 19.875C24.4333 20.575 23.7417 21.1083 22.925 21.475C22.125 21.8417 21.2417 22.025 20.275 22.025C18.975 22.025 17.8 21.7417 16.75 21.175C15.7 20.625 14.5 19.6417 13.15 18.225C11.5667 18.025 10.15 17.5167 8.9 16.7C7.66667 15.8833 6.7 14.8333 6 13.55C5.31667 12.25 4.975 10.8167 4.975 9.25C4.975 7.53333 5.38333 5.99167 6.2 4.625C7.03333 3.24167 8.175 2.15833 9.625 1.375C11.0917 0.591666 12.7333 0.2 14.55 0.2C16.3667 0.2 18 0.591666 19.45 1.375C20.9 2.15833 22.0417 3.24167 22.875 4.625C23.7083 5.99167 24.125 7.53333 24.125 9.25C24.125 11.2833 23.55 13.0667 22.4 14.6C21.2667 16.1333 19.7583 17.2 17.875 17.8C18.2917 18.2333 18.6917 18.5417 19.075 18.725C19.475 18.925 19.9 19.025 20.35 19.025C21.4333 19.025 22.3833 18.5917 23.2 17.725L25 19.875ZM9.075 9.25C9.075 10.3333 9.30833 11.3 9.775 12.15C10.2583 13 10.9167 13.6667 11.75 14.15C12.5833 14.6167 13.5167 14.85 14.55 14.85C15.5833 14.85 16.5167 14.6167 17.35 14.15C18.1833 13.6667 18.8333 13 19.3 12.15C19.7833 11.3 20.025 10.3333 20.025 9.25C20.025 8.16667 19.7833 7.2 19.3 6.35C18.8333 5.5 18.1833 4.84167 17.35 4.375C16.5167 3.89167 15.5833 3.65 14.55 3.65C13.5167 3.65 12.5833 3.89167 11.75 4.375C10.9167 4.84167 10.2583 5.5 9.775 6.35C9.30833 7.2 9.075 8.16667 9.075 9.25ZM34.7438 0.499999C36.2938 0.499999 37.6354 0.758332 38.7688 1.275C39.9188 1.79167 40.8021 2.525 41.4188 3.475C42.0354 4.425 42.3438 5.55 42.3438 6.85C42.3438 8.13333 42.0354 9.25833 41.4188 10.225C40.8021 11.175 39.9188 11.9083 38.7688 12.425C37.6354 12.925 36.2938 13.175 34.7438 13.175H31.2188V18H27.1688V0.499999H34.7438ZM34.5188 9.875C35.7354 9.875 36.6604 9.61667 37.2938 9.1C37.9271 8.56667 38.2438 7.81667 38.2438 6.85C38.2438 5.86667 37.9271 5.11667 37.2938 4.6C36.6604 4.06667 35.7354 3.8 34.5188 3.8H31.2188V9.875H34.5188ZM45.2352 0.499999H49.2852V18H45.2352V0.499999ZM61.8133 18.3C60.0299 18.3 58.4133 17.9167 56.9633 17.15C55.5299 16.3667 54.3966 15.2917 53.5633 13.925C52.7466 12.5417 52.3383 10.9833 52.3383 9.25C52.3383 7.51667 52.7466 5.96667 53.5633 4.6C54.3966 3.21667 55.5299 2.14167 56.9633 1.375C58.4133 0.591666 60.0383 0.2 61.8383 0.2C63.3549 0.2 64.7216 0.466666 65.9383 1C67.1716 1.53333 68.2049 2.3 69.0383 3.3L66.4383 5.7C65.2549 4.33333 63.7883 3.65 62.0383 3.65C60.9549 3.65 59.9883 3.89167 59.1383 4.375C58.2883 4.84167 57.6216 5.5 57.1383 6.35C56.6716 7.2 56.4383 8.16667 56.4383 9.25C56.4383 10.3333 56.6716 11.3 57.1383 12.15C57.6216 13 58.2883 13.6667 59.1383 14.15C59.9883 14.6167 60.9549 14.85 62.0383 14.85C63.7883 14.85 65.2549 14.1583 66.4383 12.775L69.0383 15.175C68.2049 16.1917 67.1716 16.9667 65.9383 17.5C64.7049 18.0333 63.3299 18.3 61.8133 18.3ZM78.1482 11.125L75.7982 13.575V18H71.7732V0.499999H75.7982V8.675L83.5482 0.499999H88.0482L80.7982 8.3L88.4732 18H83.7482L78.1482 11.125Z"/>
</mask>
<path d="M25 19.875C24.4333 20.575 23.7417 21.1083 22.925 21.475C22.125 21.8417 21.2417 22.025 20.275 22.025C18.975 22.025 17.8 21.7417 16.75 21.175C15.7 20.625 14.5 19.6417 13.15 18.225C11.5667 18.025 10.15 17.5167 8.9 16.7C7.66667 15.8833 6.7 14.8333 6 13.55C5.31667 12.25 4.975 10.8167 4.975 9.25C4.975 7.53333 5.38333 5.99167 6.2 4.625C7.03333 3.24167 8.175 2.15833 9.625 1.375C11.0917 0.591666 12.7333 0.2 14.55 0.2C16.3667 0.2 18 0.591666 19.45 1.375C20.9 2.15833 22.0417 3.24167 22.875 4.625C23.7083 5.99167 24.125 7.53333 24.125 9.25C24.125 11.2833 23.55 13.0667 22.4 14.6C21.2667 16.1333 19.7583 17.2 17.875 17.8C18.2917 18.2333 18.6917 18.5417 19.075 18.725C19.475 18.925 19.9 19.025 20.35 19.025C21.4333 19.025 22.3833 18.5917 23.2 17.725L25 19.875ZM9.075 9.25C9.075 10.3333 9.30833 11.3 9.775 12.15C10.2583 13 10.9167 13.6667 11.75 14.15C12.5833 14.6167 13.5167 14.85 14.55 14.85C15.5833 14.85 16.5167 14.6167 17.35 14.15C18.1833 13.6667 18.8333 13 19.3 12.15C19.7833 11.3 20.025 10.3333 20.025 9.25C20.025 8.16667 19.7833 7.2 19.3 6.35C18.8333 5.5 18.1833 4.84167 17.35 4.375C16.5167 3.89167 15.5833 3.65 14.55 3.65C13.5167 3.65 12.5833 3.89167 11.75 4.375C10.9167 4.84167 10.2583 5.5 9.775 6.35C9.30833 7.2 9.075 8.16667 9.075 9.25ZM34.7438 0.499999C36.2938 0.499999 37.6354 0.758332 38.7688 1.275C39.9188 1.79167 40.8021 2.525 41.4188 3.475C42.0354 4.425 42.3438 5.55 42.3438 6.85C42.3438 8.13333 42.0354 9.25833 41.4188 10.225C40.8021 11.175 39.9188 11.9083 38.7688 12.425C37.6354 12.925 36.2938 13.175 34.7438 13.175H31.2188V18H27.1688V0.499999H34.7438ZM34.5188 9.875C35.7354 9.875 36.6604 9.61667 37.2938 9.1C37.9271 8.56667 38.2438 7.81667 38.2438 6.85C38.2438 5.86667 37.9271 5.11667 37.2938 4.6C36.6604 4.06667 35.7354 3.8 34.5188 3.8H31.2188V9.875H34.5188ZM45.2352 0.499999H49.2852V18H45.2352V0.499999ZM61.8133 18.3C60.0299 18.3 58.4133 17.9167 56.9633 17.15C55.5299 16.3667 54.3966 15.2917 53.5633 13.925C52.7466 12.5417 52.3383 10.9833 52.3383 9.25C52.3383 7.51667 52.7466 5.96667 53.5633 4.6C54.3966 3.21667 55.5299 2.14167 56.9633 1.375C58.4133 0.591666 60.0383 0.2 61.8383 0.2C63.3549 0.2 64.7216 0.466666 65.9383 1C67.1716 1.53333 68.2049 2.3 69.0383 3.3L66.4383 5.7C65.2549 4.33333 63.7883 3.65 62.0383 3.65C60.9549 3.65 59.9883 3.89167 59.1383 4.375C58.2883 4.84167 57.6216 5.5 57.1383 6.35C56.6716 7.2 56.4383 8.16667 56.4383 9.25C56.4383 10.3333 56.6716 11.3 57.1383 12.15C57.6216 13 58.2883 13.6667 59.1383 14.15C59.9883 14.6167 60.9549 14.85 62.0383 14.85C63.7883 14.85 65.2549 14.1583 66.4383 12.775L69.0383 15.175C68.2049 16.1917 67.1716 16.9667 65.9383 17.5C64.7049 18.0333 63.3299 18.3 61.8133 18.3ZM78.1482 11.125L75.7982 13.575V18H71.7732V0.499999H75.7982V8.675L83.5482 0.499999H88.0482L80.7982 8.3L88.4732 18H83.7482L78.1482 11.125Z" fill="#101010"/>
<path d="M25 19.875L25.7772 20.5042L26.2952 19.8643L25.7668 19.2331L25 19.875ZM22.925 21.475L22.5154 20.5627L22.5083 20.5659L22.925 21.475ZM16.75 21.175L17.225 20.2949L17.214 20.2892L16.75 21.175ZM13.15 18.225L13.8739 17.5351L13.6284 17.2775L13.2753 17.2329L13.15 18.225ZM8.9 16.7L8.34789 17.5338L8.35305 17.5372L8.9 16.7ZM6 13.55L5.11484 14.0153L5.11842 14.0221L5.1221 14.0289L6 13.55ZM6.2 4.625L5.34341 4.10898L5.34158 4.11204L6.2 4.625ZM9.625 1.375L9.15389 0.492914L9.14969 0.495179L9.625 1.375ZM22.875 4.625L22.0184 5.14102L22.0212 5.14561L22.875 4.625ZM22.4 14.6L21.6 14L21.5958 14.0056L22.4 14.6ZM17.875 17.8L17.5714 16.8472L16.0405 17.3349L17.1542 18.4931L17.875 17.8ZM19.075 18.725L19.5222 17.8306L19.5144 17.8267L19.5065 17.8229L19.075 18.725ZM23.2 17.725L23.9668 17.0831L23.2442 16.22L22.4722 17.0392L23.2 17.725ZM9.775 12.15L8.89842 12.6313L8.90202 12.6378L8.90571 12.6443L9.775 12.15ZM11.75 14.15L11.2483 15.015L11.2548 15.0188L11.2614 15.0225L11.75 14.15ZM17.35 14.15L17.8386 15.0225L17.8452 15.0188L17.8517 15.015L17.35 14.15ZM19.3 12.15L18.4307 11.6557L18.427 11.6622L18.4234 11.6687L19.3 12.15ZM19.3 6.35L18.4234 6.83126L18.427 6.83781L18.4307 6.8443L19.3 6.35ZM17.35 4.375L16.8483 5.24003L16.8548 5.24382L16.8614 5.24751L17.35 4.375ZM11.75 4.375L12.2386 5.24751L12.2452 5.24382L12.2517 5.24003L11.75 4.375ZM9.775 6.35L8.90571 5.8557L8.90202 5.86219L8.89842 5.86874L9.775 6.35ZM24.2228 19.2458C23.7541 19.8247 23.1881 20.2607 22.5154 20.5627L23.3346 22.3873C24.2952 21.956 25.1125 21.3253 25.7772 20.5042L24.2228 19.2458ZM22.5083 20.5659C21.8515 20.867 21.1122 21.025 20.275 21.025V23.025C21.3712 23.025 22.3985 22.8163 23.3417 22.3841L22.5083 20.5659ZM20.275 21.025C19.1256 21.025 18.1162 20.776 17.2249 20.295L16.2751 22.055C17.4838 22.7074 18.8244 23.025 20.275 23.025V21.025ZM17.214 20.2892C16.3033 19.8121 15.1909 18.9172 13.8739 17.5351L12.4261 18.9149C13.8091 20.3662 15.0967 21.4379 16.286 22.0608L17.214 20.2892ZM13.2753 17.2329C11.8319 17.0506 10.5613 16.5909 9.44695 15.8628L8.35305 17.5372C9.73866 18.4424 11.3015 18.9994 13.0247 19.2171L13.2753 17.2329ZM9.4521 15.8662C8.35298 15.1384 7.49888 14.2096 6.8779 13.0711L5.1221 14.0289C5.90112 15.457 6.98035 16.6282 8.3479 17.5338L9.4521 15.8662ZM6.88516 13.0847C6.28227 11.9377 5.975 10.6657 5.975 9.25H3.975C3.975 10.9677 4.35107 12.5623 5.11484 14.0153L6.88516 13.0847ZM5.975 9.25C5.975 7.69932 6.34164 6.33746 7.05842 5.13795L5.34158 4.11204C4.42503 5.64588 3.975 7.36734 3.975 9.25H5.975ZM7.05658 5.14101C7.79567 3.91412 8.80425 2.95499 10.1003 2.25482L9.14969 0.495179C7.54575 1.36168 6.271 2.56921 5.34342 4.10899L7.05658 5.14101ZM10.0961 2.25707C11.4047 1.55817 12.8821 1.2 14.55 1.2V-0.8C12.5845 -0.8 10.7786 -0.374842 9.15389 0.492924L10.0961 2.25707ZM14.55 1.2C16.218 1.2 17.6852 1.55821 18.9747 2.25482L19.9253 0.495179C18.3148 -0.37488 16.5153 -0.8 14.55 -0.8V1.2ZM18.9747 2.25482C20.2707 2.95499 21.2793 3.91412 22.0184 5.14101L23.7316 4.10899C22.804 2.56921 21.5293 1.36168 19.9253 0.495179L18.9747 2.25482ZM22.0212 5.14561C22.752 6.34405 23.125 7.70317 23.125 9.25H25.125C25.125 7.3635 24.6647 5.63928 23.7288 4.10439L22.0212 5.14561ZM23.125 9.25C23.125 11.081 22.612 12.6507 21.6 14L23.2 15.2C24.488 13.4827 25.125 11.4857 25.125 9.25H23.125ZM21.5958 14.0056C20.5923 15.3633 19.2622 16.3085 17.5714 16.8472L18.1786 18.7528C20.2545 18.0915 21.941 16.9034 23.2042 15.1944L21.5958 14.0056ZM17.1542 18.4931C17.6222 18.9799 18.1172 19.3754 18.6435 19.6271L19.5065 17.8229C19.2661 17.7079 18.9611 17.4868 18.5958 17.1069L17.1542 18.4931ZM18.6278 19.6194C19.1675 19.8893 19.7458 20.025 20.35 20.025V18.025C20.0542 18.025 19.7825 17.9607 19.5222 17.8306L18.6278 19.6194ZM20.35 20.025C21.7378 20.025 22.943 19.4559 23.9278 18.4108L22.4722 17.0392C21.8237 17.7274 21.1289 18.025 20.35 18.025V20.025ZM22.4332 18.3669L24.2332 20.5169L25.7668 19.2331L23.9668 17.0831L22.4332 18.3669ZM8.075 9.25C8.075 10.4815 8.34164 11.6171 8.89842 12.6313L10.6516 11.6687C10.275 10.9829 10.075 10.1852 10.075 9.25H8.075ZM8.90571 12.6443C9.4752 13.6458 10.2594 14.4415 11.2483 15.015L12.2517 13.285C11.574 12.8919 11.0415 12.3542 10.6443 11.6557L8.90571 12.6443ZM11.2614 15.0225C12.2561 15.5795 13.36 15.85 14.55 15.85V13.85C13.6733 13.85 12.9106 13.6538 12.2386 13.2775L11.2614 15.0225ZM14.55 15.85C15.74 15.85 16.8439 15.5795 17.8386 15.0225L16.8614 13.2775C16.1894 13.6538 15.4267 13.85 14.55 13.85V15.85ZM17.8517 15.015C18.8437 14.4397 19.6229 13.6398 20.1766 12.6313L18.4234 11.6687C18.0438 12.3602 17.523 12.8937 16.8483 13.285L17.8517 15.015ZM20.1693 12.6443C20.7473 11.6278 21.025 10.4875 21.025 9.25H19.025C19.025 10.1792 18.8194 10.9722 18.4307 11.6557L20.1693 12.6443ZM21.025 9.25C21.025 8.0125 20.7473 6.87217 20.1693 5.8557L18.4307 6.8443C18.8194 7.52783 19.025 8.32083 19.025 9.25H21.025ZM20.1766 5.86874C19.6212 4.85721 18.838 4.06214 17.8386 3.50249L16.8614 5.24751C17.5287 5.6212 18.0454 6.14278 18.4234 6.83126L20.1766 5.86874ZM17.8517 3.50997C16.8549 2.93181 15.7463 2.65 14.55 2.65V4.65C15.4204 4.65 16.1784 4.85152 16.8483 5.24003L17.8517 3.50997ZM14.55 2.65C13.3537 2.65 12.2451 2.93181 11.2483 3.50997L12.2517 5.24003C12.9216 4.85152 13.6796 4.65 14.55 4.65V2.65ZM11.2614 3.50249C10.2652 4.06039 9.47686 4.85126 8.90571 5.8557L10.6443 6.8443C11.0398 6.14874 11.5682 5.62294 12.2386 5.24751L11.2614 3.50249ZM8.89842 5.86874C8.34164 6.88288 8.075 8.0185 8.075 9.25H10.075C10.075 8.31483 10.275 7.51712 10.6516 6.83126L8.89842 5.86874ZM38.7688 1.275L38.3539 2.18492L38.3589 2.18717L38.7688 1.275ZM41.4188 10.225L42.2576 10.7695L42.2618 10.7628L41.4188 10.225ZM38.7688 12.425L39.1724 13.3399L39.1786 13.3372L38.7688 12.425ZM31.2188 13.175V12.175H30.2188V13.175H31.2188ZM31.2188 18V19H32.2188V18H31.2188ZM27.1688 18H26.1688V19H27.1688V18ZM27.1688 0.499999V-0.500001H26.1688V0.499999H27.1688ZM37.2938 9.1L37.9259 9.87487L37.9319 9.86993L37.9379 9.86491L37.2938 9.1ZM37.2938 4.6L36.6496 5.36491L36.6556 5.36993L36.6616 5.37486L37.2938 4.6ZM31.2188 3.8V2.8H30.2188V3.8H31.2188ZM31.2188 9.875H30.2188V10.875H31.2188V9.875ZM34.7438 1.5C36.1846 1.5 37.3786 1.74026 38.3539 2.18491L39.1836 0.365092C37.8922 -0.2236 36.4029 -0.500001 34.7438 -0.500001V1.5ZM38.3589 2.18717C39.3541 2.63427 40.0796 3.24861 40.58 4.01947L42.2575 2.93053C41.5246 1.80139 40.4834 0.949062 39.1786 0.362831L38.3589 2.18717ZM40.58 4.01947C41.0765 4.78443 41.3438 5.71395 41.3438 6.85H43.3438C43.3438 5.38605 42.9943 4.06557 42.2575 2.93053L40.58 4.01947ZM41.3438 6.85C41.3438 7.96621 41.078 8.89986 40.5757 9.68718L42.2618 10.7628C42.9929 9.61681 43.3438 8.30045 43.3438 6.85H41.3438ZM40.58 9.68053C40.0796 10.4514 39.3541 11.0657 38.3589 11.5128L39.1786 13.3372C40.4834 12.7509 41.5246 11.8986 42.2575 10.7695L40.58 9.68053ZM38.3651 11.5101C37.3866 11.9418 36.1886 12.175 34.7438 12.175V14.175C36.3989 14.175 37.8842 13.9082 39.1724 13.3399L38.3651 11.5101ZM34.7438 12.175H31.2188V14.175H34.7438V12.175ZM30.2188 13.175V18H32.2188V13.175H30.2188ZM31.2188 17H27.1688V19H31.2188V17ZM28.1688 18V0.499999H26.1688V18H28.1688ZM27.1688 1.5H34.7438V-0.500001H27.1688V1.5ZM34.5188 10.875C35.8574 10.875 37.0451 10.5934 37.9259 9.87487L36.6616 8.32513C36.2758 8.6399 35.6135 8.875 34.5188 8.875V10.875ZM37.9379 9.86491C38.8357 9.10885 39.2438 8.05677 39.2438 6.85H37.2438C37.2438 7.57657 37.0185 8.02448 36.6496 8.33509L37.9379 9.86491ZM39.2438 6.85C39.2438 5.63374 38.8397 4.57063 37.9259 3.82513L36.6616 5.37486C37.0145 5.66271 37.2438 6.0996 37.2438 6.85H39.2438ZM37.9379 3.83509C37.0562 3.09266 35.8636 2.8 34.5188 2.8V4.8C35.6073 4.8 36.2646 5.04068 36.6496 5.36491L37.9379 3.83509ZM34.5188 2.8H31.2188V4.8H34.5188V2.8ZM30.2188 3.8V9.875H32.2188V3.8H30.2188ZM31.2188 10.875H34.5188V8.875H31.2188V10.875ZM45.2352 0.499999V-0.500001H44.2352V0.499999H45.2352ZM49.2852 0.499999H50.2852V-0.500001H49.2852V0.499999ZM49.2852 18V19H50.2852V18H49.2852ZM45.2352 18H44.2352V19H45.2352V18ZM45.2352 1.5H49.2852V-0.500001H45.2352V1.5ZM48.2852 0.499999V18H50.2852V0.499999H48.2852ZM49.2852 17H45.2352V19H49.2852V17ZM46.2352 18V0.499999H44.2352V18H46.2352ZM56.9633 17.15L56.4837 18.0276L56.4959 18.034L56.9633 17.15ZM53.5633 13.925L52.7021 14.4334L52.7058 14.4395L52.7095 14.4456L53.5633 13.925ZM53.5633 4.6L52.7067 4.08398L52.7049 4.08704L53.5633 4.6ZM56.9633 1.375L57.4349 2.25679L57.4386 2.25482L56.9633 1.375ZM65.9383 1L65.5368 1.91588L65.5414 1.91786L65.9383 1ZM69.0383 3.3L69.7166 4.0348L70.415 3.39006L69.8065 2.65982L69.0383 3.3ZM66.4383 5.7L65.6823 6.35458L66.358 7.135L67.1166 6.4348L66.4383 5.7ZM59.1383 4.375L59.6195 5.25158L59.6261 5.24798L59.6326 5.24429L59.1383 4.375ZM57.1383 6.35L56.269 5.8557L56.2653 5.86219L56.2617 5.86874L57.1383 6.35ZM57.1383 12.15L56.2617 12.6313L56.2653 12.6378L56.269 12.6443L57.1383 12.15ZM59.1383 14.15L58.644 15.0193L58.6505 15.023L58.657 15.0266L59.1383 14.15ZM66.4383 12.775L67.1166 12.0402L66.3535 11.3358L65.6784 12.125L66.4383 12.775ZM69.0383 15.175L69.8117 15.8089L70.4094 15.0797L69.7166 14.4402L69.0383 15.175ZM65.9383 17.5L65.5414 16.5821L65.9383 17.5ZM61.8133 17.3C60.1783 17.3 58.7243 16.95 57.4307 16.266L56.4959 18.034C58.1022 18.8834 59.8816 19.3 61.8133 19.3V17.3ZM57.4428 16.2725C56.1601 15.5715 55.1572 14.6182 54.4171 13.4044L52.7095 14.4456C53.636 15.9652 54.8998 17.1619 56.4837 18.0275L57.4428 16.2725ZM54.4244 13.4166C53.7058 12.1994 53.3383 10.8191 53.3383 9.25H51.3383C51.3383 11.1475 51.7874 12.8839 52.7021 14.4334L54.4244 13.4166ZM53.3383 9.25C53.3383 7.68074 53.7058 6.31094 54.4217 5.11296L52.7049 4.08704C51.7874 5.62239 51.3383 7.35259 51.3383 9.25H53.3383ZM54.4199 5.11601C55.1596 3.88812 56.1594 2.93903 57.4349 2.25678L56.4916 0.493215C54.9005 1.3443 53.6337 2.54521 52.7067 4.08399L54.4199 5.11601ZM57.4386 2.25482C58.7294 1.55749 60.1886 1.2 61.8383 1.2V-0.8C59.888 -0.8 58.0972 -0.374155 56.488 0.495179L57.4386 2.25482ZM61.8383 1.2C63.2363 1.2 64.4634 1.44535 65.5368 1.91587L66.3398 0.0841308C64.9798 -0.512019 63.4736 -0.8 61.8383 -0.8V1.2ZM65.5414 1.91786C66.6357 2.39108 67.5403 3.06451 68.2701 3.94018L69.8065 2.65982C68.8696 1.53549 67.7075 0.675591 66.3352 0.0821428L65.5414 1.91786ZM68.36 2.5652L65.76 4.9652L67.1166 6.4348L69.7166 4.0348L68.36 2.5652ZM67.1943 5.04542C65.8282 3.46767 64.0892 2.65 62.0383 2.65V4.65C63.4873 4.65 64.6817 5.199 65.6823 6.35458L67.1943 5.04542ZM62.0383 2.65C60.8008 2.65 59.6605 2.92772 58.644 3.50571L59.6326 5.24429C60.3161 4.85562 61.1091 4.65 62.0383 4.65V2.65ZM58.657 3.49842C57.6434 4.05494 56.843 4.84625 56.269 5.8557L58.0076 6.8443C58.4002 6.15375 58.9332 5.62839 59.6195 5.25158L58.657 3.49842ZM56.2617 5.86874C55.7049 6.88288 55.4383 8.0185 55.4383 9.25H57.4383C57.4383 8.31483 57.6383 7.51712 58.0149 6.83126L56.2617 5.86874ZM55.4383 9.25C55.4383 10.4815 55.7049 11.6171 56.2617 12.6313L58.0149 11.6687C57.6383 10.9829 57.4383 10.1852 57.4383 9.25H55.4383ZM56.269 12.6443C56.8413 13.6508 57.6375 14.447 58.644 15.0193L59.6326 13.2807C58.939 12.8863 58.4019 12.3492 58.0076 11.6557L56.269 12.6443ZM58.657 15.0266C59.6712 15.5834 60.8068 15.85 62.0383 15.85V13.85C61.1031 13.85 60.3054 13.65 59.6195 13.2734L58.657 15.0266ZM62.0383 15.85C64.0938 15.85 65.8336 15.0202 67.1982 13.425L65.6784 12.125C64.6763 13.2964 63.4828 13.85 62.0383 13.85V15.85ZM65.76 13.5098L68.36 15.9098L69.7166 14.4402L67.1166 12.0402L65.76 13.5098ZM68.2649 14.5411C67.5349 15.4316 66.6317 16.1106 65.5414 16.5821L66.3352 18.4179C67.7115 17.8227 68.875 16.9517 69.8117 15.8089L68.2649 14.5411ZM65.5414 16.5821C64.4485 17.0547 63.211 17.3 61.8133 17.3V19.3C63.4489 19.3 64.9614 19.0119 66.3352 18.4179L65.5414 16.5821ZM78.1482 11.125L78.9236 10.4935L78.2094 9.61664L77.4266 10.4328L78.1482 11.125ZM75.7982 13.575L75.0766 12.8828L74.7982 13.1729V13.575H75.7982ZM75.7982 18V19H76.7982V18H75.7982ZM71.7732 18H70.7732V19H71.7732V18ZM71.7732 0.499999V-0.500001H70.7732V0.499999H71.7732ZM75.7982 0.499999H76.7982V-0.500001H75.7982V0.499999ZM75.7982 8.675H74.7982V11.1833L76.524 9.36299L75.7982 8.675ZM83.5482 0.499999V-0.500001H83.1183L82.8225 -0.187992L83.5482 0.499999ZM88.0482 0.499999L88.7807 1.18081L90.343 -0.500001H88.0482V0.499999ZM80.7982 8.3L80.0658 7.61919L79.4816 8.24764L80.014 8.9205L80.7982 8.3ZM88.4732 18V19H90.5396L89.2575 17.3795L88.4732 18ZM83.7482 18L82.9729 18.6315L83.273 19H83.7482V18ZM77.4266 10.4328L75.0766 12.8828L76.5199 14.2672L78.8699 11.8172L77.4266 10.4328ZM74.7982 13.575V18H76.7982V13.575H74.7982ZM75.7982 17H71.7732V19H75.7982V17ZM72.7732 18V0.499999H70.7732V18H72.7732ZM71.7732 1.5H75.7982V-0.500001H71.7732V1.5ZM74.7982 0.499999V8.675H76.7982V0.499999H74.7982ZM76.524 9.36299L84.274 1.18799L82.8225 -0.187992L75.0725 7.98701L76.524 9.36299ZM83.5482 1.5H88.0482V-0.500001H83.5482V1.5ZM87.3158 -0.180812L80.0658 7.61919L81.5307 8.98081L88.7807 1.18081L87.3158 -0.180812ZM80.014 8.9205L87.689 18.6205L89.2575 17.3795L81.5825 7.6795L80.014 8.9205ZM88.4732 17H83.7482V19H88.4732V17ZM84.5236 17.3685L78.9236 10.4935L77.3729 11.7565L82.9729 18.6315L84.5236 17.3685Z" fill="black" mask="url(#path-1-outside-1_2_236)"/>
</g>
<defs>
<filter id="filter0_d_2_236" x="0.974976" y="0.200012" width="91.4983" height="29.825" filterUnits="userSpaceOnUse" color-interpolation-filters="sRGB">
<feFlood flood-opacity="0" result="BackgroundImageFix"/>
<feColorMatrix in="SourceAlpha" type="matrix" values="0 0 0 0 0 0 0 0 0 0 0 0 0 0 0 0 0 0 127 0" result="hardAlpha"/>
<feOffset dy="4"/>
<feGaussianBlur stdDeviation="2"/>
<feComposite in2="hardAlpha" operator="out"/>
<feColorMatrix type="matrix" values="0 0 0 0 0 0 0 0 0 0 0 0 0 0 0 0 0 0 0.25 0"/>
<feBlend mode="normal" in2="BackgroundImageFix" result="effect1_dropShadow_2_236"/>
<feBlend mode="normal" in="SourceGraphic" in2="effect1_dropShadow_2_236" result="shape"/>
</filter>
</defs>
</svg>
